<svg id="Layer_1" data-name="Layer 1" xmlns="http://www.w3.org/2000/svg" xmlns:xlink="http://www.w3.org/1999/xlink" viewBox="0 0 148.83 91.42"><defs><style>.cls-1,.cls-2,.cls-3,.cls-4,.cls-5{stroke:#333;}.cls-1,.cls-2,.cls-4,.cls-5{stroke-miterlimit:10;}.cls-1{stroke-width:0.38px;fill:url(#linear-gradient);}.cls-2,.cls-3,.cls-4,.cls-5{stroke-width:0.39px;}.cls-2{fill:url(#linear-gradient-2);}.cls-3{fill:#3a3a3a;stroke-linecap:round;stroke-linejoin:round;}.cls-4{fill:url(#linear-gradient-3);}.cls-5{fill:url(#linear-gradient-4);}.cls-6{fill:url(#linear-gradient-5);}.cls-7{fill:#fff;}</style><linearGradient id="linear-gradient" x1="-1090.51" y1="-745.93" x2="-1018.99" y2="-745.93" gradientTransform="translate(1126.69 791.63)" gradientUnits="userSpaceOnUse"><stop offset="0" stop-color="#4d4d4d"/><stop offset="0.06" stop-color="#999"/><stop offset="0.44" stop-color="#c8c8c8"/><stop offset="0.56" stop-color="#ccc"/><stop offset="0.95" stop-color="#999"/><stop offset="1" stop-color="#4d4d4d"/></linearGradient><linearGradient id="linear-gradient-2" x1="-1070.83" y1="-807.85" x2="-1038.67" y2="-807.85" gradientTransform="translate(1188.62 853.56)" gradientUnits="userSpaceOnUse"><stop offset="0" stop-color="#4d4d4d"/><stop offset="0.15" stop-color="gray"/><stop offset="0.44" stop-color="#b3b3b3"/><stop offset="0.8" stop-color="gray"/><stop offset="1" stop-color="#4d4d4d"/></linearGradient><linearGradient id="linear-gradient-3" x1="-1091.32" y1="-802.13" x2="-1018.18" y2="-802.13" gradientTransform="translate(-673.99 1100.46) rotate(90)" gradientUnits="userSpaceOnUse"><stop offset="0" stop-color="#4d4d4d"/><stop offset="0.2" stop-color="gray"/><stop offset="0.47" stop-color="#b3b3b3"/><stop offset="0.82" stop-color="gray"/><stop offset="1" stop-color="#4d4d4d"/></linearGradient><linearGradient id="linear-gradient-4" x1="-1091.32" y1="-689.08" x2="-1018.18" y2="-689.08" gradientTransform="translate(-673.99 1100.46) rotate(90)" gradientUnits="userSpaceOnUse"><stop offset="0" stop-color="#4d4d4d"/><stop offset="0.22" stop-color="gray"/><stop offset="0.49" stop-color="#b3b3b3"/><stop offset="0.72" stop-color="gray"/><stop offset="1" stop-color="#4d4d4d"/></linearGradient><linearGradient id="linear-gradient-5" x1="-1089.2" y1="-745.56" x2="-1020.44" y2="-745.56" gradientTransform="translate(1126.39 791.19)" gradientUnits="userSpaceOnUse"><stop offset="0" stop-color="#00194c"/><stop offset="0.22" stop-color="#3775bf"/><stop offset="0.49" stop-color="#8cb6dd"/><stop offset="0.72" stop-color="#3775bf"/><stop offset="1" stop-color="#00194c"/></linearGradient></defs><rect class="cls-1" x="36.18" y="-9.29" width="71.53" height="109.99" transform="translate(117.65 -26.23) rotate(90)"/><rect class="cls-2" x="117.79" y="42.7" width="32.16" height="6.01" rx="1.13" transform="translate(179.58 -88.16) rotate(90)"/><path class="cls-3" d="M129.59,80l.1-68.72a2.29,2.29,0,0,1,.86.34,1.68,1.68,0,0,1,.73,1.14V78.94a1.06,1.06,0,0,1-.49.86A1.58,1.58,0,0,1,129.59,80Z"/><path class="cls-4" d="M126.29,82.06q.12-36.35.22-72.71a2.85,2.85,0,0,1,2.83.36,1.93,1.93,0,0,1,.65,1.62V80a2.19,2.19,0,0,1-1.09,1.87A3,3,0,0,1,126.29,82.06Z"/><path class="cls-3" d="M13.64,11.45l-.1,68.72a2.42,2.42,0,0,1-.86-.34A1.72,1.72,0,0,1,12,78.69V12.48a1.08,1.08,0,0,1,.5-.86A1.56,1.56,0,0,1,13.64,11.45Z"/><path class="cls-5" d="M16.94,9.35q-.11,36.36-.22,72.72a2.83,2.83,0,0,1-2.82-.36,1.87,1.87,0,0,1-.65-1.62V11.4a2.17,2.17,0,0,1,1.08-1.87A3,3,0,0,1,16.94,9.35Z"/><rect class="cls-6" x="37.19" y="-9.09" width="68.77" height="109.45" rx="2.85" transform="translate(117.21 -25.93) rotate(90)"/><path class="cls-7" d="M41.85,31.78v5h9.69l.18.66.13.53a5.82,5.82,0,0,1,.1.77c0,.24,0,.52,0,.84v3.69a9.19,9.19,0,0,1-.82,3.81,14.21,14.21,0,0,1-2.41,3.59l-4.38,4.82-3.31-2.82L43,50.47c.82-.92,1.5-1.69,2.06-2.3a16.89,16.89,0,0,0,1.33-1.65,5.89,5.89,0,0,0,.72-1.41,5.3,5.3,0,0,0,.21-1.58V40.47H37.18V31.78Z"/><path class="cls-7" d="M63.91,36.77V54.54H59.25V40.47h-3v-3.7Z"/><path class="cls-7" d="M80.08,36.77A10,10,0,0,1,82.2,37a4.77,4.77,0,0,1,1.88.91,4.66,4.66,0,0,1,1.33,1.8,7.57,7.57,0,0,1,.51,3V54.56H81.29V43.89a13.3,13.3,0,0,0-.09-1.72,1.94,1.94,0,0,0-.42-1.05,1.69,1.69,0,0,0-.94-.51,7.93,7.93,0,0,0-1.64-.14H74.75a12.46,12.46,0,0,0-.33,2.17c0,.65,0,1.33,0,2v9.88H69.74V44.76a17.63,17.63,0,0,1,.14-2.15,18.28,18.28,0,0,1,.46-2.27,11,11,0,0,1-1.22-.25c-.41-.11-.88-.25-1.41-.44.18-.61.36-1.22.55-1.82s.39-1.18.61-1.77c.58.16,1.08.29,1.49.38s.82.16,1.2.21a9.1,9.1,0,0,0,1.2.1l1.54,0Z"/><path class="cls-7" d="M96.16,40.47c-.58,0-1.09,0-1.54,0s-.87-.05-1.28-.1-.83-.14-1.26-.24-.91-.26-1.46-.46c.19-.61.37-1.22.56-1.82s.39-1.18.61-1.77c.58.16,1.07.29,1.49.38s.82.16,1.2.21a9.1,9.1,0,0,0,1.2.1l1.54,0h1.52a8,8,0,0,1,2.06.26,4.69,4.69,0,0,1,1.84.95A5.35,5.35,0,0,1,104,39.82a8.11,8.11,0,0,1,.62,3c0,.64.06,1.27.07,1.9s0,1.29,0,2,0,1.39,0,2.13v2.37c0,.28,0,.52,0,.75a6.14,6.14,0,0,1-.07.7c0,.26-.08.53-.14.83s-.15.67-.25,1.11H89.34V50.85h10.79c0-.54,0-1.1,0-1.69s0-1.17,0-1.77,0-1.2,0-1.79,0-1.16,0-1.71a13,13,0,0,0-.1-1.72,1.94,1.94,0,0,0-.42-1.05,1.65,1.65,0,0,0-.94-.51,7.86,7.86,0,0,0-1.64-.14Z"/></svg>