<svg id="Layer_1" data-name="Layer 1" xmlns="http://www.w3.org/2000/svg" viewBox="0 0 83.42 78.92"><defs><style>.cls-1{fill:gray;}.cls-2{fill:#b3b3b3;}</style></defs><path class="cls-1" d="M73,2.33c-9.77-5.46-20.34.27-22.05,1.2A26.59,26.59,0,0,0,41.71,12a26.64,26.64,0,0,0-9.23-8.42c-1.7-.93-12.28-6.66-22-1.2C-.15,8.24,0,21.83,0,23.18c0,1.52.28,4.91,3.1,11.27C6.93,43.1,12,49.3,22.46,60.07c5,5.19,11.49,11.63,19.25,18.85C49.47,71.7,55.92,65.26,61,60.07c10.44-10.77,15.53-17,19.36-25.62,2.83-6.36,3.06-9.75,3.1-11.27C83.44,21.83,83.57,8.24,73,2.33Z"/><path class="cls-2" d="M69.37,5.13c-8.73-3.93-17.23,2-19.1,3.38A22.61,22.61,0,0,0,42.5,19.57,25.2,25.2,0,0,0,33.8,8.84C31.83,7.49,23,1.39,14,5.54,6.77,8.9,3.88,17.71,4,24c.18,8.69,6.25,15.65,16.18,27,1.72,2,3.12,3.51,5,5.45,4.32,4.37,9.85,9.79,16.51,15.87,6.65-6.08,12.19-11.5,16.5-15.87A110.28,110.28,0,0,0,70.26,42.2c6.11-8.83,9.17-13.24,9.13-19.42C79.35,17.2,76.88,8.52,69.37,5.13Z"/></svg>