<svg preserveAspectRatio="none" id="Layer_1" data-name="Layer 1" xmlns="http://www.w3.org/2000/svg" xmlns:xlink="http://www.w3.org/1999/xlink" viewBox="0 0 1397.47 756.98"><defs><style>.cls-1{fill:#5b5b5b;stroke-width:4.41px;}.cls-1,.cls-2,.cls-3,.cls-5,.cls-6,.cls-7{stroke:#333;stroke-miterlimit:10;}.cls-2{stroke-width:3.1px;fill:url(#radial-gradient);}.cls-3,.cls-5,.cls-6,.cls-7{stroke-width:1.05px;}.cls-3{fill:url(#radial-gradient-2);}.cls-4{fill:#b3b3b3;}.cls-5{fill:url(#radial-gradient-3);}.cls-6{fill:url(#radial-gradient-4);}.cls-7{fill:url(#radial-gradient-5);}</style><radialGradient id="radial-gradient" cx="735.37" cy="387.09" r="747.68" gradientTransform="translate(-30.16 0.66) scale(0.99 0.98)" gradientUnits="userSpaceOnUse"><stop offset="0" stop-color="#e6e6e6"/><stop offset="1" stop-color="#999"/></radialGradient><radialGradient id="radial-gradient-2" cx="-851.17" cy="2301.95" r="45.46" gradientTransform="translate(-730.98 -2216.7) rotate(-40.15)" gradientUnits="userSpaceOnUse"><stop offset="0" stop-color="#666"/><stop offset="1" stop-color="#1a1a1a"/></radialGradient><radialGradient id="radial-gradient-3" cx="-784.63" cy="-3874.93" r="45.46" gradientTransform="translate(-1690.92 2680.18) rotate(60.55)" xlink:href="#radial-gradient-2"/><radialGradient id="radial-gradient-4" cx="-2212.65" cy="4395.71" r="45.46" gradientTransform="translate(-2050.1 -2940.4) rotate(-69.58)" xlink:href="#radial-gradient-2"/><radialGradient id="radial-gradient-5" cx="-5322.2" cy="3004.06" r="45.46" gradientTransform="translate(-4675.02 -3144.15) rotate(-111.98)" xlink:href="#radial-gradient-2"/></defs><rect class="cls-1" x="2.21" y="2.21" width="1393.06" height="752.57" rx="10.5"/><rect class="cls-2" x="41.88" y="37.41" width="1313.72" height="682.15" rx="9.71"/><circle class="cls-3" cx="102.71" cy="91.64" r="32.21"/><path class="cls-4" d="M89.88,76.12a59.47,59.47,0,0,1,7.88,6.52,103.77,103.77,0,0,1,13,15.39,58.94,58.94,0,0,1,5.1,8.87,57.57,57.57,0,0,1-7.89-6.52A99.53,99.53,0,0,1,101.09,93c-2.16-2.57-4.21-5.24-6.11-8A59.43,59.43,0,0,1,89.88,76.12Z"/><path class="cls-4" d="M87.32,104.62a58.84,58.84,0,0,1,6.52-7.88,103.77,103.77,0,0,1,15.39-13,58.94,58.94,0,0,1,8.87-5.1,57.57,57.57,0,0,1-6.52,7.89,97.72,97.72,0,0,1-7.38,6.87q-3.84,3.24-8,6.11A59.43,59.43,0,0,1,87.32,104.62Z"/><circle class="cls-5" cx="1297.43" cy="91.64" r="32.21"/><path class="cls-4" d="M1315,81.74a59.1,59.1,0,0,1-7.88,6.53c-2.75,2-5.6,3.73-8.52,5.39s-5.92,3.16-9,4.52a58.63,58.63,0,0,1-9.66,3.36,57.73,57.73,0,0,1,7.87-6.54c2.75-1.94,5.6-3.73,8.52-5.38s5.93-3.16,9-4.52A58.91,58.91,0,0,1,1315,81.74Z"/><path class="cls-4" d="M1286.41,74.81a59.33,59.33,0,0,1,7.13,7.33,100.42,100.42,0,0,1,6,8.08,97.67,97.67,0,0,1,5.21,8.62,59.25,59.25,0,0,1,4.12,9.37,58,58,0,0,1-7.14-7.33,100.26,100.26,0,0,1-6-8.07c-1.87-2.79-3.61-5.66-5.21-8.64A58.7,58.7,0,0,1,1286.41,74.81Z"/><circle class="cls-6" cx="1297.43" cy="666.83" r="32.21"/><path class="cls-4" d="M1278.56,659.8a59.42,59.42,0,0,1,10.07,1.81c3.26.85,6.46,1.88,9.61,3a98.12,98.12,0,0,1,9.26,4,58.87,58.87,0,0,1,8.8,5.22,58.43,58.43,0,0,1-10.07-1.8,102.27,102.27,0,0,1-18.87-7A59.38,59.38,0,0,1,1278.56,659.8Z"/><path class="cls-4" d="M1290,685.54a57.87,57.87,0,0,1,2-10q1.39-4.86,3.26-9.54a98.16,98.16,0,0,1,4.18-9.17,57.78,57.78,0,0,1,5.42-8.68,58.91,58.91,0,0,1-2,10,97.45,97.45,0,0,1-3.27,9.54q-1.86,4.68-4.18,9.17A60,60,0,0,1,1290,685.54Z"/><circle class="cls-7" cx="102.71" cy="666.83" r="32.21"/><path class="cls-4" d="M84,674.36a59.37,59.37,0,0,1,8.65-5.45c3-1.57,6-3,9.15-4.23a98.23,98.23,0,0,1,9.52-3.31,58,58,0,0,1,10-2.08,58.6,58.6,0,0,1-8.65,5.46c-3,1.57-6,3-9.15,4.23s-6.29,2.36-9.53,3.3A58.66,58.66,0,0,1,84,674.36Z"/><path class="cls-4" d="M94.41,648.92a58.86,58.86,0,0,1,5.87,8.38,98.5,98.5,0,0,1,4.68,8.93,96,96,0,0,1,3.78,9.34,58.83,58.83,0,0,1,2.58,9.91,58.45,58.45,0,0,1-5.89-8.38A103.28,103.28,0,0,1,97,658.82,58.45,58.45,0,0,1,94.41,648.92Z"/></svg>