<svg preserveAspectRatio = "none" id="Layer_1" data-name="Layer 1" xmlns="http://www.w3.org/2000/svg" xmlns:xlink="http://www.w3.org/1999/xlink" viewBox="0 0 1930 1090"><defs><style>.cls-1,.cls-11,.cls-3,.cls-5{fill:none;}.cls-2{fill:url(#radial-gradient);}.cls-11,.cls-3,.cls-5{stroke:#7c1700;stroke-miterlimit:10;}.cls-3{stroke-width:13.16px;}.cls-4{fill:url(#radial-gradient-2);}.cls-5{stroke-width:16.7px;}.cls-6{fill:url(#radial-gradient-3);}.cls-13,.cls-7{opacity:0.4;}.cls-7{fill:url(#radial-gradient-4);}.cls-8{fill:#ff7f66;}.cls-9{fill:#960e00;}.cls-10{clip-path:url(#clip-path);}.cls-11{stroke-width:9.12px;}.cls-12{fill:url(#radial-gradient-5);}.cls-13{fill:url(#radial-gradient-6);}.cls-14{fill:#fff;}</style><radialGradient id="radial-gradient" cx="965" cy="545" r="1174.9" gradientUnits="userSpaceOnUse"><stop offset="0" stop-color="#5e0000"/><stop offset="1" stop-color="#3a0000"/></radialGradient><radialGradient id="radial-gradient-2" cx="1475.43" cy="502.53" fx="1460.377802602884" fy="509.4738841048924" r="427.99" gradientTransform="translate(-41.62 299.1) scale(1.04 0.91)" gradientUnits="userSpaceOnUse"><stop offset="0" stop-color="#c44f00"/><stop offset="0.64" stop-color="#660e00"/></radialGradient><radialGradient id="radial-gradient-3" cx="1474.37" cy="353.19" r="613.77" gradientTransform="translate(-41.62 -74.78) scale(1.04 1.07)" gradientUnits="userSpaceOnUse"><stop offset="0" stop-color="#bc0000"/><stop offset="1" stop-color="#d15e00"/></radialGradient><radialGradient id="radial-gradient-4" cx="1476.49" cy="345.07" fx="1483.653986008492" fy="447.43075376086836" r="613.77" gradientTransform="translate(-41.62 -74.78) scale(1.04 1.07)" gradientUnits="userSpaceOnUse"><stop offset="0" stop-color="#fff380"/><stop offset="0.74" stop-color="#d15e00" stop-opacity="0"/></radialGradient><clipPath id="clip-path"><rect class="cls-1" x="1135.98" y="915.21" width="655.5" height="182.45"/></clipPath><radialGradient id="radial-gradient-5" cx="2098.31" cy="5311.97" r="342.39" gradientTransform="translate(3753.62 6268.22) rotate(180) scale(1.09 0.97)" xlink:href="#radial-gradient-3"/><radialGradient id="radial-gradient-6" cx="2097.32" cy="5311.97" fx="2097.3161694833107" fy="5369.07227341495" r="342.37" gradientTransform="translate(3753.62 6268.22) rotate(180) scale(1.09 0.97)" xlink:href="#radial-gradient-4"/></defs><rect class="cls-2" width="1930" height="1090"/><path class="cls-3" d="M1290.45,541c48.73,113.79,62.91,206.65,66.91,270.19,5.74,91.35-2.79,229.85-2.79,229.85h0c13.85,10.11,49,33,101.75,39.12A225.89,225.89,0,0,0,1572,1063a1129.53,1129.53,0,0,1,20.91-275.09c25.51-127.11,68.95-231.18,108.72-308.09-15.3-8-158.44-80.28-299.68-22A280.64,280.64,0,0,0,1290.45,541Z"/><path class="cls-4" d="M1290.45,541c48.73,113.79,62.91,206.65,66.91,270.19,5.74,91.35-2.79,229.85-2.79,229.85h0c13.85,10.11,49,33,101.75,39.12A225.89,225.89,0,0,0,1572,1063a1129.53,1129.53,0,0,1,20.91-275.09c25.51-127.11,68.95-231.18,108.72-308.09-15.3-8-158.44-80.28-299.68-22A280.64,280.64,0,0,0,1290.45,541Z"/><path class="cls-5" d="M1068,310.33c-17.27-39.8-14.18-84.87,9.48-115.6,33-42.82,102.24-53.15,156.4-14.58-2.79-13.24-5.76-36.7,2.84-62.17,19-56.18,84.8-94.29,145-82.57,44.35,8.63,70.84,41.39,79.62,53.43,6.41-17.72,23.39-56.57,62.56-79.66,66.67-39.3,168.21-15.64,201.9,50.51,16.75,32.9,12.3,67.62,8.53,85.49,4.76-4.43,33.78-30.61,73-25.26,41.89,5.73,76,44.8,76.78,85.49.42,20.57-7.75,36.79-13.27,45.66,14.64-.84,38.08,0,62.56,11.66,58.69,28,94,104.6,78.67,172.92-8.88,39.45-39.21,96.27-95.73,106.86-38.44,7.2-70.26-10.48-81.52-17.49,1.29,6.24,4.2,24.32-4.74,43.72-.61,1.32-12.84,26.82-40.76,35.94-26.32,8.6-56.53-.65-77.72-23.31-3.56,6.29-12.22,19.5-28.44,27.2-20.37,9.66-50.56,9.65-69.19-10.69-16.93-18.48-14.68-43.25-14.22-47.6,0,0-44,29.2-88.15,31.09-31.55,1.34-70.47-17.19-76.78-46.63-4.14-19.37,10.43-41.78,10.43-41.78-1,2.36-10.63,23.24-33.18,28.18-1.14.25-20.44,4.18-35.07-6.8-8.09-6.09-17.06-18.46-17.06-18.46h0c-1.92,12-10,52.94-45.5,80.63-42.67,33.29-103,30.23-136.49,6.8-17.4-12.18-44.55-41.77-44.55-41.77h0c-2.57,2.29-13.64,11.62-29.38,10.68-14.08-.83-29.83-9.75-35.07-26.23-5.92-18.6,5.51-34.44,6.63-35.94-10.79.45-32.55-.28-54-13.6C989,456.2,965.89,412.39,977,370.56c7-26.14,28.07-54.5,58.77-61.2A68.62,68.62,0,0,1,1068,310.33Z"/><path class="cls-6" d="M1068,310.33c-17.27-39.8-14.18-84.87,9.48-115.6,33-42.82,102.24-53.15,156.4-14.58-2.79-13.24-5.76-36.7,2.84-62.17,19-56.18,84.8-94.29,145-82.57,44.35,8.63,70.84,41.39,79.62,53.43,6.41-17.72,23.39-56.57,62.56-79.66,66.67-39.3,168.21-15.64,201.9,50.51,16.75,32.9,12.3,67.62,8.53,85.49,4.76-4.43,33.78-30.61,73-25.26,41.89,5.73,76,44.8,76.78,85.49.42,20.57-7.75,36.79-13.27,45.66,14.64-.84,38.08,0,62.56,11.66,58.69,28,94,104.6,78.67,172.92-8.88,39.45-39.21,96.27-95.73,106.86-38.44,7.2-70.26-10.48-81.52-17.49,1.29,6.24,4.2,24.32-4.74,43.72-.61,1.32-12.84,26.82-40.76,35.94-26.32,8.6-56.53-.65-77.72-23.31-3.56,6.29-12.22,19.5-28.44,27.2-20.37,9.66-50.56,9.65-69.19-10.69-16.93-18.48-14.68-43.25-14.22-47.6,0,0-44,29.2-88.15,31.09-31.55,1.34-70.47-17.19-76.78-46.63-4.14-19.37,10.43-41.78,10.43-41.78-1,2.36-10.63,23.24-33.18,28.18-1.14.25-20.44,4.18-35.07-6.8-8.09-6.09-17.06-18.46-17.06-18.46h0c-1.92,12-10,52.94-45.5,80.63-42.67,33.29-103,30.23-136.49,6.8-17.4-12.18-44.55-41.77-44.55-41.77h0c-2.57,2.29-13.64,11.62-29.38,10.68-14.08-.83-29.83-9.75-35.07-26.23-5.92-18.6,5.51-34.44,6.63-35.94-10.79.45-32.55-.28-54-13.6C989,456.2,965.89,412.39,977,370.56c7-26.14,28.07-54.5,58.77-61.2A68.62,68.62,0,0,1,1068,310.33Z"/><path class="cls-7" d="M1070.24,301.66c-17.28-39.8-14.18-84.87,9.47-115.61,33-42.81,102.25-53.15,156.4-14.57-2.79-13.24-5.75-36.7,2.85-62.17,19-56.19,84.8-94.29,145-82.58,44.35,8.63,70.84,41.4,79.62,53.43C1470,62.44,1487,23.6,1526.16.51,1592.83-38.8,1694.37-15.13,1728.05,51c16.75,32.89,12.31,67.61,8.54,85.49,4.75-4.43,33.78-30.62,73-25.26,41.88,5.72,76,44.8,76.78,85.49.41,20.56-7.76,36.79-13.27,45.66,14.63-.85,38.08,0,62.56,11.66,58.69,28,94,104.6,78.67,172.91-8.88,39.46-39.21,96.27-95.73,106.86-38.44,7.21-70.27-10.47-81.52-17.48,1.29,6.23,4.2,24.31-4.74,43.71-.61,1.33-12.84,26.83-40.76,36-26.33,8.6-56.53-.66-77.72-23.32-3.56,6.3-12.22,19.51-28.44,27.2-20.37,9.67-50.57,9.66-69.19-10.68-16.93-18.48-14.69-43.25-14.22-47.6,0,0-44,29.2-88.15,31.08-31.55,1.35-70.48-17.19-76.78-46.63-4.15-19.36,10.43-41.77,10.43-41.77-1,2.35-10.63,23.24-33.18,28.17-1.14.25-20.44,4.19-35.07-6.8-8.1-6.08-17.06-18.46-17.06-18.46h0c-1.92,12-10,52.95-45.5,80.64-42.68,33.29-103,30.23-136.49,6.8-17.41-12.19-44.55-41.78-44.55-41.78h0c-2.58,2.3-13.64,11.63-29.38,10.69-14.08-.84-29.83-9.76-35.08-26.23-5.92-18.6,5.52-34.45,6.64-35.94-10.8.44-32.56-.28-54-13.6-32.62-20.25-55.68-64.06-44.55-105.89,7-26.15,28.07-54.5,58.77-61.2A68.63,68.63,0,0,1,1070.24,301.66Z"/><path class="cls-8" d="M1068,310.33c-17.27-39.8-14.18-84.87,9.48-115.6,33-42.82,102.24-53.15,156.4-14.58-2.79-13.24-5.76-36.7,2.84-62.17,19-56.18,84.8-94.29,145-82.57,44.35,8.63,70.84,41.39,79.62,53.43,6.41-17.72,23.39-56.57,62.56-79.66,66.67-39.3,168.21-15.64,201.9,50.51,16.75,32.9,12.3,67.62,8.53,85.49,4.76-4.43,33.78-30.61,73-25.26,41.89,5.73,76,44.8,76.78,85.49.42,20.57-7.75,36.79-13.27,45.66a129.29,129.29,0,0,1,62.56,11.66c43.83,20.54,62,60.33,68.87,75.34,10.42,22.81,12.4,47,12.4,47a320.41,320.41,0,0,0-27.57-45c-8.5-11.7-26-35.82-53.07-50.76-37.07-20.47-76-14.81-93.74-10.88,18.88-30.51,21-66.75,5.3-94.26-2.28-4-14-23.74-37.14-32.63-33.62-12.93-76.67,2.71-106.13,39.88,1.43-4.12,23.11-70.07-17.68-121.46-4.68-5.89-29.57-36-72.52-41.69-39.54-5.24-68.75,13.61-81.37,21.75-49.53,31.95-63.82,85.25-67.21,99.71-15.66-43.08-50.85-73.83-92-79.77-6.51-.94-44.26-5.74-77.82,19.94-34,26-49.76,72.71-40.69,119.65-6.48-5.65-40.47-34.11-88.44-29-8.37.89-38.25,4.52-63.67,29C1061.15,247.92,1067.21,303.81,1068,310.33Z"/><path class="cls-9" d="M1068,310.33c-6.54,2.5-34.27,13.95-48.17,44.62-2.68,5.93-12.48,27.57-5.68,50.51,8.59,29,40.69,50,79.62,50.52,5.61,38.41,16.08,50.48,25.59,53.43,9,2.79,28.44,1,28.44,1h0c7.84,11.43,24.59,32.52,53.08,46.63,9.33,4.62,59.72,29.58,95.73,7.77,39.06-23.65,59.72-88.4,59.72-88.4s17.24,16.9,37,19.43c31.85,4.08,67.3-33,67.3-33s-11,58.17,11.38,82.57c21.25,23.22,71.36,6.71,73.93,5.83,0,0,14.38-4.92,67.3-46.63h0c-3.19,29.33,8.5,55.44,28.43,65.09,2.24,1.08,18.38,8.9,33.18,1.94,19.2-9,29.53-35.32,29.53-35.32s11.67,22.56,32.08,35.32c13.5,8.44,31.23,9.83,44.55,4.86,23.82-8.89,39.75-40.44,35.07-76.75,23.67,13.29,61,29.07,100.47,19.43,62.88-15.35,95.56-83.47,95.56-83.47s-23.32,93.29-95.73,106.86c-38.44,7.2-70.26-10.48-81.52-17.49,1.29,6.24,4.2,24.32-4.74,43.72-.61,1.32-12.84,26.82-40.76,35.94-26.32,8.6-56.53-.65-77.72-23.31-3.56,6.29-12.22,19.5-28.44,27.2-20.37,9.66-50.56,9.65-69.19-10.69-16.93-18.48-14.68-43.25-14.22-47.6,0,0-44,29.2-88.15,31.09-31.55,1.34-70.47-17.19-76.78-46.63-4.14-19.37,10.43-41.78,10.43-41.78-1,2.36-10.63,23.24-33.18,28.18-1.14.25-20.44,4.18-35.07-6.8-8.09-6.09-17.06-18.46-17.06-18.46-1.92,12-10,52.94-45.5,80.63-42.67,33.29-103,30.23-136.49,6.8-17.4-12.18-44.55-41.77-44.55-41.77-2.57,2.29-13.64,11.62-29.38,10.68-14.08-.83-29.83-9.75-35.07-26.23-5.92-18.6,5.51-34.44,6.63-35.94-10.79.45-32.55-.28-54-13.6C989,456.2,965.89,412.39,977,370.56c7-26.14,28.07-54.5,58.77-61.2A68.62,68.62,0,0,1,1068,310.33Z"/><path class="cls-8" d="M1888.14,320.62a147.42,147.42,0,0,0-17.74-16.88,118.73,118.73,0,0,0-19.88-13A93.28,93.28,0,0,0,1806,280a101.11,101.11,0,0,0-44.59,11.19,118.36,118.36,0,0,0-19.89,13A152,152,0,0,0,1723.8,321a90.43,90.43,0,0,1,32.64-38.33,91.79,91.79,0,0,1,49.46-15.22,98.22,98.22,0,0,1,13.16.82l3.26.51,3.24.66c1.08.2,2.14.5,3.2.76s2.13.55,3.18.89a81.89,81.89,0,0,1,12.26,4.72,87.85,87.85,0,0,1,11.34,6.44,94.33,94.33,0,0,1,19.13,17.08,96.11,96.11,0,0,1,7.56,10.18A73.3,73.3,0,0,1,1888.14,320.62Z"/><path class="cls-8" d="M1465.5,326a124.51,124.51,0,0,0-8.62-11.26c-.74-.91-1.53-1.77-2.32-2.64s-1.54-1.75-2.35-2.59l-2.44-2.5-1.21-1.25-1.27-1.19a133.4,133.4,0,0,0-21.64-16.9c-3.82-2.47-7.86-4.53-11.86-6.61-2.07-.93-4.14-1.83-6.18-2.78-1-.51-2.1-.84-3.15-1.25l-3.17-1.17a132.46,132.46,0,0,0-26.19-6.61,135,135,0,0,0-13.47-1.32c-1.13-.06-2.26-.17-3.39-.19l-3.39,0-3.4,0c-1.13,0-2.26.1-3.39.14a145.64,145.64,0,0,0-27,3.5,156.36,156.36,0,0,0-51.09,21.74,99.68,99.68,0,0,1,22-18.72,120.43,120.43,0,0,1,26.47-12.52,128.83,128.83,0,0,1,58.57-5l7.33,1.3,7.23,1.77c1.21.27,2.38.7,3.56,1.09l3.54,1.17,3.53,1.17c1.17.43,2.3,1,3.44,1.44a107.58,107.58,0,0,1,25.7,14.82,108.76,108.76,0,0,1,20.61,20.9L1453,302l1,1.51,2,3c.66,1,1.27,2.08,1.9,3.11s1.23,2.08,1.79,3.16A74.71,74.71,0,0,1,1465.5,326Z"/><path class="cls-8" d="M1932.77,342.29a72.63,72.63,0,0,0-11.15-5.36,69.53,69.53,0,0,0-11.17-3.23,76.17,76.17,0,0,0-11.21-1.41,96.56,96.56,0,0,0-11.28.2,100.89,100.89,0,0,0-22.39,4.52,109.92,109.92,0,0,0-22,10.07A37.17,37.17,0,0,1,1851,336.3a51.73,51.73,0,0,1,10.47-8.23,59.16,59.16,0,0,1,39.09-7.57l3.35.65c1.12.19,2.21.58,3.31.87a30.7,30.7,0,0,1,3.24,1.07c1.07.41,2.13.8,3.15,1.3a43.83,43.83,0,0,1,11.3,7.36A31.44,31.44,0,0,1,1932.77,342.29Z"/><path class="cls-8" d="M1314.55,313.62a72.19,72.19,0,0,0-11.15-5.36,69.42,69.42,0,0,0-11.16-3.23,76.34,76.34,0,0,0-11.21-1.41,96.52,96.52,0,0,0-11.28.2,100.66,100.66,0,0,0-22.39,4.52,110,110,0,0,0-22.06,10.07,37.2,37.2,0,0,1,7.46-10.78,52,52,0,0,1,10.46-8.23,59.18,59.18,0,0,1,39.09-7.57l3.36.65c1.12.19,2.21.58,3.3.87a31.66,31.66,0,0,1,3.25,1.07c1.06.41,2.12.8,3.15,1.3a43.77,43.77,0,0,1,11.29,7.36A31.31,31.31,0,0,1,1314.55,313.62Z"/><path class="cls-8" d="M1529.38,188.64a96.54,96.54,0,0,0-29.72-20.92,102.11,102.11,0,0,0-34-8.47,122.21,122.21,0,0,0-35.24,2.64,124.94,124.94,0,0,0-34.14,13.33,61.51,61.51,0,0,1,13.92-13.44,81.07,81.07,0,0,1,17.32-9.3,90.78,90.78,0,0,1,39.1-5.72l5,.56c1.66.2,3.3.53,4.94.81s3.27.72,4.89,1.13l2.43.62c.4.1.81.2,1.21.32l1.18.41,4.74,1.66c1.56.61,3.08,1.34,4.61,2s3,1.49,4.46,2.27l2.19,1.22,2.11,1.34a69.35,69.35,0,0,1,15,12.94,60.74,60.74,0,0,1,5.8,7.88A43.74,43.74,0,0,1,1529.38,188.64Z"/><path class="cls-8" d="M1761.71,223.51A96.28,96.28,0,0,0,1732,202.6a102.05,102.05,0,0,0-34-8.47,121.79,121.79,0,0,0-35.23,2.64,124.5,124.5,0,0,0-34.14,13.33,61.25,61.25,0,0,1,13.91-13.44,80.19,80.19,0,0,1,17.32-9.3,90.81,90.81,0,0,1,39.1-5.72l5,.56c1.65.19,3.3.52,4.94.81s3.26.72,4.88,1.12l2.43.62c.41.11.81.21,1.21.33l1.19.41,4.74,1.65c1.56.62,3.07,1.34,4.6,2s3,1.49,4.47,2.28l2.19,1.21,2.11,1.35a69.58,69.58,0,0,1,15,12.93,61.43,61.43,0,0,1,5.8,7.88A43.7,43.7,0,0,1,1761.71,223.51Z"/><path class="cls-8" d="M1680.75,241.47A96.28,96.28,0,0,0,1651,220.56a102.05,102.05,0,0,0-34-8.47,121.79,121.79,0,0,0-35.23,2.64,124.5,124.5,0,0,0-34.14,13.33,61.25,61.25,0,0,1,13.91-13.44,80.19,80.19,0,0,1,17.32-9.3,90.65,90.65,0,0,1,39.1-5.72l5,.56c1.65.19,3.3.52,4.94.81s3.26.72,4.88,1.12l2.43.62c.41.11.81.21,1.21.33l1.19.41,4.74,1.65c1.56.62,3.07,1.34,4.6,2s3,1.49,4.47,2.28l2.19,1.21,2.11,1.35a69.58,69.58,0,0,1,15,12.93,61.43,61.43,0,0,1,5.8,7.88A43.7,43.7,0,0,1,1680.75,241.47Z"/><path class="cls-8" d="M1321.71,258.53a140.33,140.33,0,0,0-18-16.1,117.2,117.2,0,0,0-20.06-12.13,95.53,95.53,0,0,0-44.33-9.24,106,106,0,0,0-44.08,11.39,121.36,121.36,0,0,0-19.77,12.63,150.1,150.1,0,0,0-17.7,16.46c6.73-15.05,18.3-28.18,32.52-37.6a94.52,94.52,0,0,1,48.66-15.4l3.25,0a32.05,32.05,0,0,1,3.25.07c2.16.15,4.33.24,6.48.46a93.65,93.65,0,0,1,12.77,2.42,88.93,88.93,0,0,1,23.66,10.21,93,93,0,0,1,19.48,16.23A81.28,81.28,0,0,1,1321.71,258.53Z"/><path class="cls-8" d="M1772.59,365.16A183.69,183.69,0,0,0,1758,349.35,121.25,121.25,0,0,0,1742,336.2c-11.27-7.61-23.87-12.55-36.85-12.91-12.92-.57-25.88,3.23-37.33,10.34a89.21,89.21,0,0,0-16.06,12.8,153.84,153.84,0,0,0-14,16.19,75.91,75.91,0,0,1,9.25-20.08A72.9,72.9,0,0,1,1662,325.63a67.4,67.4,0,0,1,20.26-11.38,65.86,65.86,0,0,1,11.47-2.84,22.65,22.65,0,0,1,3-.37l3-.21a51.17,51.17,0,0,1,5.94-.05,48.61,48.61,0,0,1,5.91.54,50.17,50.17,0,0,1,5.84,1,69.94,69.94,0,0,1,11.2,3.69,67.46,67.46,0,0,1,10.27,5.51,76.13,76.13,0,0,1,9.15,6.94,88.44,88.44,0,0,1,14.76,17,90.32,90.32,0,0,1,5.6,9.58A69.91,69.91,0,0,1,1772.59,365.16Z"/><g class="cls-10"><path class="cls-11" d="M1711.83,1096.41c10.11,20.26,8.3,43.21-5.55,58.86-19.31,21.8-59.88,27.06-91.59,7.42,1.63,6.74,3.37,18.68-1.67,31.65-11.1,28.6-49.66,48-84.92,42-26-4.39-41.48-21.08-46.63-27.2-3.75,9-13.69,28.8-36.63,40.55-39,20-98.51,8-118.23-25.71-9.81-16.75-7.21-34.43-5-43.53-2.78,2.26-19.78,15.59-42.74,12.86-24.32-2.89-36.7-27.94-45-43.52a123.74,123.74,0,0,1-14-51.52,56.87,56.87,0,0,1-33.72-8.09c-19.34-12-29.71-35.69-27.21-57.61,3.57-31.33,32.34-50.54,56.06-54.41,22.51-3.66,41.14,5.34,47.73,8.91a31.94,31.94,0,0,1,2.78-22.26,41,41,0,0,1,23.87-18.3c15.42-4.38,33.1.33,45.51,11.87a36.5,36.5,0,0,1,16.66-13.85c11.92-4.92,29.61-4.91,40.52,5.44,9.91,9.41,8.59,22,8.32,24.24,0,0,25.74-14.87,51.62-15.83,18.48-.68,41.27,8.75,45,23.74,2.43,9.86-6.1,21.27-6.1,21.27a28.27,28.27,0,0,1,19.43-14.35c.67-.12,12-2.13,20.53,3.47,4.74,3.09,10,9.39,10,9.39,1.13-6.09,5.86-27,26.65-41.05,25-16.95,60.32-15.39,79.93-3.46,10.19,6.2,26.09,21.27,26.09,21.27a26.4,26.4,0,0,1,17.2-5.44c8.25.42,17.47,5,20.54,13.35,3.47,9.47-3.23,17.54-3.88,18.3,6.32-.23,19.06.14,31.63,6.93,19.11,10.3,32.61,32.61,26.09,53.91-4.07,13.31-16.43,27.74-34.41,31.16A46,46,0,0,1,1711.83,1096.41Z"/><path class="cls-12" d="M1711.83,1096.41c10.11,20.26,8.3,43.21-5.55,58.86-19.31,21.8-59.88,27.06-91.59,7.42,1.63,6.74,3.37,18.68-1.67,31.65-11.1,28.6-49.66,48-84.92,42-26-4.39-41.48-21.08-46.63-27.2-3.75,9-13.69,28.8-36.63,40.55-39,20-98.51,8-118.23-25.71-9.81-16.75-7.21-34.43-5-43.53-2.78,2.26-19.78,15.59-42.74,12.86-24.32-2.89-36.7-27.94-45-43.52a123.74,123.74,0,0,1-14-51.52c-3.33.26-27.34,1.68-45.51-17.58-.89-.94-19-20.74-15.42-48.12,3.89-30,31.17-50.35,56.06-54.41,22.51-3.66,41.14,5.34,47.73,8.91a31.94,31.94,0,0,1,2.78-22.26,41,41,0,0,1,23.87-18.3c15.42-4.38,33.1.33,45.51,11.87a36.5,36.5,0,0,1,16.66-13.85c11.92-4.92,29.61-4.91,40.52,5.44,9.91,9.41,8.59,22,8.32,24.24,0,0,25.74-14.87,51.62-15.83,18.48-.68,41.27,8.75,45,23.74,2.43,9.86-6.1,21.27-6.1,21.27a28.27,28.27,0,0,1,19.43-14.35c.67-.12,12-2.13,20.53,3.47,4.74,3.09,10,9.39,10,9.39,1.13-6.09,5.86-27,26.65-41.05,25-16.95,60.32-15.39,79.93-3.46,10.19,6.2,26.09,21.27,26.09,21.27a26.4,26.4,0,0,1,17.2-5.44c8.25.42,17.47,5,20.54,13.35,3.47,9.47-3.23,17.54-3.88,18.3,6.32-.23,19.06.14,31.63,6.93,19.11,10.3,32.61,32.61,26.09,53.91-4.07,13.31-16.43,27.74-34.41,31.16A46,46,0,0,1,1711.83,1096.41Z"/><path class="cls-13" d="M1712.88,1096.41c10.11,20.26,8.3,43.21-5.55,58.86-19.3,21.8-59.88,27.06-91.59,7.42,1.64,6.74,3.37,18.68-1.66,31.65-11.11,28.6-49.67,48-84.93,42-26-4.39-41.48-21.08-46.62-27.2-3.76,9-13.7,28.8-36.64,40.55-39,20-98.5,8-118.23-25.71-9.81-16.75-7.2-34.43-5-43.53-2.79,2.26-19.79,15.59-42.74,12.86-23.82-2.83-36.09-27.17-45-43.52a129.63,129.63,0,0,1-15-51.52,49.64,49.64,0,0,1-25.09-2.85c-22.8-9.15-37.89-36.68-34.79-62.85,3.74-31.5,32.46-50.56,56.06-54.41,22.51-3.66,41.15,5.34,47.74,8.91a31.86,31.86,0,0,1,2.77-22.26,41,41,0,0,1,23.87-18.3c15.42-4.38,33.11.33,45.52,11.87a36.4,36.4,0,0,1,16.65-13.85c11.93-4.92,29.61-4.91,40.52,5.44,9.91,9.41,8.6,22,8.33,24.24,0,0,25.73-14.87,51.62-15.83,18.47-.68,41.27,8.75,45,23.74,2.42,9.86-6.11,21.27-6.11,21.27a28.33,28.33,0,0,1,19.43-14.35c.67-.12,12-2.13,20.54,3.47,4.74,3.09,10,9.39,10,9.39,1.12-6.09,5.85-27,26.64-41.05,25-16.95,60.33-15.39,79.93-3.46,10.19,6.2,26.09,21.27,26.09,21.27a26.46,26.46,0,0,1,17.21-5.44c8.24.42,17.46,5,20.53,13.35,3.47,9.47-3.23,17.54-3.88,18.3,6.32-.23,19.06.14,31.64,6.93,19.1,10.3,32.6,32.61,26.09,53.91-4.08,13.31-16.44,27.74-34.42,31.16A46,46,0,0,1,1712.88,1096.41Z"/><path class="cls-9" d="M1711.83,1096.41c3.83-1.27,20.07-7.1,28.2-22.72,1.57-3,7.32-14,3.33-25.71-5-14.76-23.83-25.43-46.62-25.72-3.29-19.56-9.42-25.7-15-27.21-5.26-1.41-16.65-.49-16.65-.49A79.53,79.53,0,0,0,1634,970.82c-5.46-2.35-35-15.06-56.06-4-22.87,12-35,45-35,45s-10.09-8.61-21.65-9.89c-18.65-2.08-39.41,16.82-39.41,16.82s6.43-29.62-6.66-42c-12.45-11.81-41.79-3.41-43.29-3,0,0-8.42,2.5-39.41,23.74,1.87-14.93-5-28.23-16.65-33.14-1.31-.55-10.77-4.53-19.43-1-11.24,4.6-17.29,18-17.29,18s-6.84-11.48-18.79-18a35,35,0,0,0-26.09-2.47c-14,4.52-23.28,20.59-20.54,39.07-13.86-6.76-35.71-14.8-58.83-9.89-36.82,7.82-56,42.5-56,42.5.49-6,2.59-22.13,14.93-35.73,13.85-15.26,31.67-17.49,41.13-18.68,22.21-2.78,39.77,4.79,47.73,8.91a31.94,31.94,0,0,1,2.78-22.26,41,41,0,0,1,23.87-18.3c15.42-4.38,33.1.33,45.51,11.87a36.5,36.5,0,0,1,16.66-13.85c11.92-4.92,29.61-4.91,40.52,5.44,9.91,9.41,8.59,22,8.32,24.24,0,0,25.74-14.87,51.62-15.83,18.48-.68,41.27,8.75,45,23.74,2.43,9.86-6.1,21.27-6.1,21.27a28.27,28.27,0,0,1,19.43-14.35c.67-.12,12-2.13,20.53,3.47,4.74,3.09,10,9.39,10,9.39,1.13-6.09,5.86-27,26.65-41.05,25-16.95,60.32-15.39,79.93-3.46,10.19,6.2,26.09,21.27,26.09,21.27a26.4,26.4,0,0,1,17.2-5.44c8.25.42,17.47,5,20.54,13.35,3.47,9.47-3.23,17.54-3.88,18.3,6.32-.23,19.06.14,31.63,6.93,19.11,10.3,32.61,32.61,26.09,53.91-4.07,13.31-16.43,27.74-34.41,31.16A46,46,0,0,1,1711.83,1096.41Z"/></g><path class="cls-14" d="M318.38,500.09a12,12,0,0,1-12,11.86,11.35,11.35,0,0,1-8.38-3.53,11.47,11.47,0,0,1-3.48-8.33,12.41,12.41,0,0,1,3.43-8.78,11.1,11.1,0,0,1,8.43-3.68,11.25,11.25,0,0,1,8.48,3.68A12.34,12.34,0,0,1,318.38,500.09Zm-1.76-16.27h-21.1v-67h21.1Z"/><path class="cls-14" d="M429.12,511.75H405l-34.09-51.92c-.73,0-1.6.61-2.6,1.85a5.9,5.9,0,0,0-1.5,3.71l1.86,8.79,7.91,37.57H344V498.9q0-6.87,2.14-6.87h5.84l-4.56-19.65a42,42,0,0,1-1.47-8.66q0-15,14.46-20.23l-14.65-22.95h20c2.41,0,4,.23,4.69.69a14.31,14.31,0,0,1,2.73,3.32l23.93,36.05q9.77-3.21,9.76-14.2v-6.13H398V420.54h22.75q6.45,2.64,6.44,14v10.63q0,14.83-19.82,32.21Z"/><path class="cls-14" d="M512.32,480.11a28.6,28.6,0,0,1-8.5,20.71Q493,511.76,472.28,511.75h-7.81V492h7.84q18.92,0,18.92-13.72v-38H443.08V401.6H463.4v18.94h42.66q6.26,0,6.26,7.43Z"/><path class="cls-14" d="M617.11,463.51H595.62V440.27H582.24V420.54h29.4q5.46,0,5.47,6.64Z"/><path class="cls-14" d="M666.91,511.75H645.82V440.27h-12.7V420.54h28.13c1.75,0,3.19,1,4.29,3a10.82,10.82,0,0,1,1.37,5.18Z"/><path class="cls-14" d="M772.28,511.75H748.16l-34.08-51.92c-.74,0-1.6.61-2.6,1.85a5.9,5.9,0,0,0-1.5,3.71l1.85,8.79,7.91,37.57H687.13V498.9q0-6.87,2.14-6.87h5.84l-4.57-19.65a42.54,42.54,0,0,1-1.46-8.66q0-15,14.45-20.23l-14.65-22.95h20c2.41,0,4,.23,4.69.69a14.31,14.31,0,0,1,2.73,3.32l23.93,36.05q9.76-3.21,9.77-14.2v-6.13h-8.89V420.54h22.75q6.45,2.64,6.45,14v10.63q0,14.83-19.83,32.21Z"/><path class="cls-14" d="M163.44,650.09a12,12,0,0,1-12,11.86,11.35,11.35,0,0,1-8.38-3.53,11.47,11.47,0,0,1-3.48-8.33,12.41,12.41,0,0,1,3.43-8.78,11.08,11.08,0,0,1,8.43-3.68,11.25,11.25,0,0,1,8.48,3.68A12.33,12.33,0,0,1,163.44,650.09Zm-1.75-16.27h-21.1v-67h21.1Z"/><path class="cls-14" d="M267,661.75H189V604.22l4.59-14h-7V570.54h67.58a13.4,13.4,0,0,1,8.83,3.32,10.22,10.22,0,0,1,4,8.11ZM245.87,642V590.27H210.12V642Z"/><path class="cls-14" d="M373.6,661.75H352.51V590.27H316.08v71.48H285.61V642H295V607.2l7-16.93h-8.4V570.54H364q9.57,0,9.57,12.21Z"/><path class="cls-14" d="M472.62,661.75h-80V642H444L401.73,603.6V590.27H391.67V570.54h25.47c3.07,0,4.6,1.87,4.6,5.59v19.71l18.32,16.7q5.49-.69,9.12-6.13a18.36,18.36,0,0,0,3.33-10.6v-5.54H441.37V570.54h26.57q4.68,0,4.68,5.57v21.48q0,19.83-17.89,28.32l17.89,16.22Z"/><path class="cls-14" d="M572.23,661.75h-80V642h51.33L501.33,603.6V590.27H491.28V570.54h25.47c3.07,0,4.6,1.87,4.6,5.59v19.71l18.32,16.7q5.49-.69,9.11-6.13a18.37,18.37,0,0,0,3.34-10.6v-5.54H541V570.54h26.57q4.68,0,4.68,5.57v21.48q0,19.83-17.89,28.32l17.89,16.22Z"/><path class="cls-14" d="M622.62,661.75H601.53V590.27h-12.7V570.54H617q2.64,0,4.3,3a10.81,10.81,0,0,1,1.36,5.18Z"/><path class="cls-14" d="M721.84,643.4a16.14,16.14,0,0,1-6.49,13.18q-6.5,5.17-17.53,5.17H642.45V642h50.67q7.62,0,7.63-7.3V590.27h-37.4v14.94h12.11v18.95H644.21V605.65l5.95-15.38h-7.91V570.54h73q6.64,0,6.64,5.57Z"/><path class="cls-14" d="M827.41,661.75h-21.1V590.27H769.89v71.48H739.42V642h9.38V607.2l7-16.93h-8.4V570.54h70.41q9.57,0,9.57,12.21Z"/><path class="cls-14" d="M926.24,661.75H905.05V590.27H847.62V570.54h69.14q6.25,0,8.21,5.77,1.26,3.71,1.27,13.86Zm-57.52,0h-21.1V610.68h21.1Z"/></svg>