<svg id="Layer_1" data-name="Layer 1" xmlns="http://www.w3.org/2000/svg" xmlns:xlink="http://www.w3.org/1999/xlink" viewBox="0 0 148.83 91.42"><defs><style>.cls-1,.cls-2,.cls-3,.cls-4,.cls-5{stroke:#333;}.cls-1,.cls-2,.cls-4,.cls-5{stroke-miterlimit:10;}.cls-1{stroke-width:0.38px;fill:url(#linear-gradient);}.cls-2,.cls-3,.cls-4,.cls-5{stroke-width:0.39px;}.cls-2{fill:url(#linear-gradient-2);}.cls-3{fill:#3a3a3a;stroke-linecap:round;stroke-linejoin:round;}.cls-4{fill:url(#linear-gradient-3);}.cls-5{fill:url(#linear-gradient-4);}.cls-6{fill:url(#linear-gradient-5);}.cls-7{fill:#fff;}</style><linearGradient id="linear-gradient" x1="-1402.51" y1="-1057.93" x2="-1330.99" y2="-1057.93" gradientTransform="translate(1438.69 1103.63)" gradientUnits="userSpaceOnUse"><stop offset="0" stop-color="#4d4d4d"/><stop offset="0.06" stop-color="#999"/><stop offset="0.44" stop-color="#c8c8c8"/><stop offset="0.56" stop-color="#ccc"/><stop offset="0.95" stop-color="#999"/><stop offset="1" stop-color="#4d4d4d"/></linearGradient><linearGradient id="linear-gradient-2" x1="-1382.83" y1="-1119.85" x2="-1350.67" y2="-1119.85" gradientTransform="translate(1500.62 1165.56)" gradientUnits="userSpaceOnUse"><stop offset="0" stop-color="#4d4d4d"/><stop offset="0.15" stop-color="gray"/><stop offset="0.44" stop-color="#b3b3b3"/><stop offset="0.8" stop-color="gray"/><stop offset="1" stop-color="#4d4d4d"/></linearGradient><linearGradient id="linear-gradient-3" x1="-1403.32" y1="-1114.13" x2="-1330.18" y2="-1114.13" gradientTransform="translate(-985.99 1412.46) rotate(90)" gradientUnits="userSpaceOnUse"><stop offset="0" stop-color="#4d4d4d"/><stop offset="0.2" stop-color="gray"/><stop offset="0.47" stop-color="#b3b3b3"/><stop offset="0.82" stop-color="gray"/><stop offset="1" stop-color="#4d4d4d"/></linearGradient><linearGradient id="linear-gradient-4" x1="-1403.32" y1="-1001.08" x2="-1330.18" y2="-1001.08" gradientTransform="translate(-985.99 1412.46) rotate(90)" gradientUnits="userSpaceOnUse"><stop offset="0" stop-color="#4d4d4d"/><stop offset="0.22" stop-color="gray"/><stop offset="0.49" stop-color="#b3b3b3"/><stop offset="0.72" stop-color="gray"/><stop offset="1" stop-color="#4d4d4d"/></linearGradient><linearGradient id="linear-gradient-5" x1="-1401.2" y1="-1057.56" x2="-1332.44" y2="-1057.56" gradientTransform="translate(1438.39 1103.19)" gradientUnits="userSpaceOnUse"><stop offset="0" stop-color="#490000"/><stop offset="0.22" stop-color="#bf3636"/><stop offset="0.49" stop-color="#dd8a8a"/><stop offset="0.72" stop-color="#bf3636"/><stop offset="1" stop-color="#490000"/></linearGradient></defs><rect class="cls-1" x="36.18" y="-9.29" width="71.53" height="109.99" transform="translate(117.65 -26.23) rotate(90)"/><rect class="cls-2" x="117.79" y="42.7" width="32.16" height="6.01" rx="1.13" transform="translate(179.58 -88.16) rotate(90)"/><path class="cls-3" d="M129.59,80l.1-68.72a2.29,2.29,0,0,1,.86.34,1.68,1.68,0,0,1,.73,1.14V78.94a1.06,1.06,0,0,1-.49.86A1.58,1.58,0,0,1,129.59,80Z"/><path class="cls-4" d="M126.29,82.06q.12-36.35.22-72.71a2.85,2.85,0,0,1,2.83.36,1.93,1.93,0,0,1,.65,1.62V80a2.19,2.19,0,0,1-1.09,1.87A3,3,0,0,1,126.29,82.06Z"/><path class="cls-3" d="M13.64,11.45l-.1,68.72a2.42,2.42,0,0,1-.86-.34A1.72,1.72,0,0,1,12,78.69V12.48a1.08,1.08,0,0,1,.5-.86A1.56,1.56,0,0,1,13.64,11.45Z"/><path class="cls-5" d="M16.94,9.35q-.11,36.36-.22,72.72a2.83,2.83,0,0,1-2.82-.36,1.87,1.87,0,0,1-.65-1.62V11.4a2.17,2.17,0,0,1,1.08-1.87A3,3,0,0,1,16.94,9.35Z"/><rect class="cls-6" x="37.19" y="-9.09" width="68.77" height="109.45" rx="2.85" transform="translate(117.21 -25.93) rotate(90)"/><path class="cls-7" d="M49,38.89a9.44,9.44,0,0,1,2.12.24A4.75,4.75,0,0,1,53,40a4.63,4.63,0,0,1,1.33,1.8,7.57,7.57,0,0,1,.51,3V56.66H38.24V46.88a15.83,15.83,0,0,1,.14-2.15,20.21,20.21,0,0,1,.45-2.27,11.33,11.33,0,0,1-1.21-.25c-.41-.11-.88-.25-1.42-.43.18-.62.37-1.23.56-1.83s.39-1.18.6-1.76c.59.16,1.08.28,1.5.37s.81.16,1.2.22a11.26,11.26,0,0,0,1.2.09l1.54,0ZM50.18,53V46a13.3,13.3,0,0,0-.09-1.72,2.06,2.06,0,0,0-.42-1,1.69,1.69,0,0,0-.94-.51,8,8,0,0,0-1.64-.13H43.24a12.15,12.15,0,0,0-.32,2.16c0,.65-.05,1.33-.05,2V53Z"/><path class="cls-7" d="M66.79,38.89V56.66H62.13V42.6h-3V38.89Z"/><path class="cls-7" d="M76.48,42.6q-.87,0-1.53,0c-.45,0-.88,0-1.29-.1a9.48,9.48,0,0,1-1.25-.24c-.43-.11-.92-.26-1.46-.45.18-.62.36-1.23.55-1.83s.39-1.18.61-1.76c.58.16,1.08.28,1.49.37s.82.16,1.2.22a11.26,11.26,0,0,0,1.2.09l1.54,0H87.4V42.6H84V56.66H79.29V42.6Z"/><path class="cls-7" d="M107.59,44.87a18.7,18.7,0,0,1-.53,1.9,9.22,9.22,0,0,1-.69,1.52,7.53,7.53,0,0,1-.92,1.26,9.53,9.53,0,0,1-1.26,1.15L108,55l-3,2.66-8.9-10.27a3.79,3.79,0,0,0-.4,1.14,12.42,12.42,0,0,0-.22,1.51c0,.55-.07,1.11-.08,1.68s0,1.13,0,1.65v.68c0,.27,0,.55,0,.86l0,.95v.93H90.91c0-.32,0-.66,0-1s0-.78,0-1.23,0-1,0-1.51,0-1.17.06-1.85a19,19,0,0,1,.14-2,9.38,9.38,0,0,1,.39-1.72A8.3,8.3,0,0,1,92.31,46a8.91,8.91,0,0,1,1.2-1.53c-.3-.37-.57-.74-.8-1.09s-.45-.72-.65-1.11-.39-.78-.58-1.21-.38-.9-.59-1.41q.94-.39,2-.78c.71-.27,1.38-.5,2-.71.25.64.49,1.21.71,1.71a13.74,13.74,0,0,0,.75,1.43q.41.67.9,1.35c.34.45.74.94,1.21,1.48l3.26,3.76a3.88,3.88,0,0,0,.75-.92,6.67,6.67,0,0,0,.6-1.3c.07-.2.14-.41.21-.65s.13-.49.19-.75l.44-2.05-2.49-.43.61-3.57,6.31,1.07v2.21Z"/></svg>