<svg id="Layer_1" data-name="Layer 1" xmlns="http://www.w3.org/2000/svg" xmlns:xlink="http://www.w3.org/1999/xlink" viewBox="0 0 83.54 79.07"><defs><style>.cls-1{stroke:#680000;stroke-miterlimit:10;stroke-width:0.13px;fill:url(#linear-gradient);}.cls-2{fill:url(#linear-gradient-2);}</style><linearGradient id="linear-gradient" x1="41.77" y1="80.02" x2="41.77" y2="-3.39" gradientUnits="userSpaceOnUse"><stop offset="0" stop-color="#890000"/><stop offset="0.96" stop-color="#e55c5c"/></linearGradient><linearGradient id="linear-gradient-2" x1="41.76" y1="77.03" x2="41.76" y2="1.59" gradientUnits="userSpaceOnUse"><stop offset="0" stop-color="#890000"/><stop offset="0.54" stop-color="#e55c5c"/><stop offset="0.76" stop-color="#e27474"/></linearGradient></defs><path class="cls-1" d="M73.05,2.39C63.28-3.07,52.7,2.67,51,3.59A26.7,26.7,0,0,0,41.77,12a26.6,26.6,0,0,0-9.22-8.43c-1.71-.92-12.28-6.66-22.06-1.2C-.09,8.31,0,21.89.07,23.24c0,1.52.27,4.91,3.1,11.28C7,43.16,12.09,49.36,22.52,60.13,27.55,65.33,34,71.77,41.77,79,49.53,71.77,56,65.33,61,60.13c10.44-10.77,15.53-17,19.36-25.61,2.82-6.37,3.06-9.76,3.09-11.28C83.51,21.89,83.63,8.31,73.05,2.39Z"/><path class="cls-2" d="M69.43,5.2c-8.72-3.93-17.22,2-19.1,3.37a22.65,22.65,0,0,0-7.77,11.06,25.19,25.19,0,0,0-8.7-10.72C31.89,7.55,23,1.45,14.09,5.6,6.84,9,3.94,17.78,4.07,24.05c.17,8.69,6.24,15.65,16.18,27,1.72,2,3.11,3.51,5,5.44,4.31,4.37,9.85,9.8,16.5,15.87C48.43,66.33,54,60.9,58.28,56.53a109.66,109.66,0,0,0,12-14.27c6.12-8.83,9.17-13.24,9.13-19.42C79.42,17.26,76.94,8.59,69.43,5.2Z"/></svg>