<svg id="Layer_1" data-name="Layer 1" xmlns="http://www.w3.org/2000/svg" viewBox="0 0 151.63 151.63"><defs><style>.cls-1{fill:none;stroke:#fff;stroke-miterlimit:10;stroke-width:2.84px;}.cls-2{fill:#fff;}</style></defs><circle class="cls-1" cx="75.82" cy="75.82" r="74.4"/><path class="cls-2" d="M87.1,75.82l21.38-21.39a8,8,0,0,0,0-11.28h0a8,8,0,0,0-11.28,0L75.82,64.54,54.43,43.15a8,8,0,0,0-11.28,0h0a8,8,0,0,0,0,11.28L64.54,75.82,43.15,97.2a8,8,0,0,0,0,11.28h0a8,8,0,0,0,11.28,0L75.82,87.1,97.2,108.48A8,8,0,0,0,108.48,97.2Z"/></svg>