<svg id="Layer_1" data-name="Layer 1" xmlns="http://www.w3.org/2000/svg" xmlns:xlink="http://www.w3.org/1999/xlink" viewBox="0 0 148.83 91.42"><defs><style>.cls-1,.cls-2,.cls-3,.cls-4,.cls-5{stroke:#333;}.cls-1,.cls-2,.cls-4,.cls-5{stroke-miterlimit:10;}.cls-1{stroke-width:0.38px;fill:url(#linear-gradient);}.cls-2,.cls-3,.cls-4,.cls-5{stroke-width:0.39px;}.cls-2{fill:url(#linear-gradient-2);}.cls-3{fill:#3a3a3a;stroke-linecap:round;stroke-linejoin:round;}.cls-4{fill:url(#linear-gradient-3);}.cls-5{fill:url(#linear-gradient-4);}.cls-6{fill:url(#linear-gradient-5);}.cls-7{fill:#fff;}</style><linearGradient id="linear-gradient" x1="-1245.75" y1="-901.16" x2="-1174.22" y2="-901.16" gradientTransform="translate(1281.92 946.87)" gradientUnits="userSpaceOnUse"><stop offset="0" stop-color="#4d4d4d"/><stop offset="0.06" stop-color="#999"/><stop offset="0.44" stop-color="#c8c8c8"/><stop offset="0.56" stop-color="#ccc"/><stop offset="0.95" stop-color="#999"/><stop offset="1" stop-color="#4d4d4d"/></linearGradient><linearGradient id="linear-gradient-2" x1="-1226.06" y1="-963.09" x2="-1193.9" y2="-963.09" gradientTransform="translate(1343.85 1008.8)" gradientUnits="userSpaceOnUse"><stop offset="0" stop-color="#4d4d4d"/><stop offset="0.15" stop-color="gray"/><stop offset="0.44" stop-color="#b3b3b3"/><stop offset="0.8" stop-color="gray"/><stop offset="1" stop-color="#4d4d4d"/></linearGradient><linearGradient id="linear-gradient-3" x1="-1246.56" y1="-957.37" x2="-1173.41" y2="-957.37" gradientTransform="translate(-829.22 1255.69) rotate(90)" gradientUnits="userSpaceOnUse"><stop offset="0" stop-color="#4d4d4d"/><stop offset="0.2" stop-color="gray"/><stop offset="0.47" stop-color="#b3b3b3"/><stop offset="0.82" stop-color="gray"/><stop offset="1" stop-color="#4d4d4d"/></linearGradient><linearGradient id="linear-gradient-4" x1="-1246.56" y1="-844.31" x2="-1173.41" y2="-844.31" gradientTransform="translate(-829.22 1255.69) rotate(90)" gradientUnits="userSpaceOnUse"><stop offset="0" stop-color="#4d4d4d"/><stop offset="0.22" stop-color="gray"/><stop offset="0.49" stop-color="#b3b3b3"/><stop offset="0.72" stop-color="gray"/><stop offset="1" stop-color="#4d4d4d"/></linearGradient><linearGradient id="linear-gradient-5" x1="-1244.44" y1="-900.79" x2="-1175.67" y2="-900.79" gradientTransform="translate(1281.62 946.43)" gradientUnits="userSpaceOnUse"><stop offset="0" stop-color="#9b6b00"/><stop offset="0.22" stop-color="#edc82e"/><stop offset="0.49" stop-color="#ddd38e"/><stop offset="0.72" stop-color="#edc82e"/><stop offset="1" stop-color="#9b6b00"/></linearGradient></defs><rect class="cls-1" x="36.18" y="-9.29" width="71.53" height="109.99" transform="translate(117.65 -26.23) rotate(90)"/><rect class="cls-2" x="117.79" y="42.7" width="32.16" height="6.01" rx="1.13" transform="translate(179.58 -88.16) rotate(90)"/><path class="cls-3" d="M129.59,80l.1-68.72a2.29,2.29,0,0,1,.86.34,1.68,1.68,0,0,1,.73,1.14V78.94a1.06,1.06,0,0,1-.49.86A1.58,1.58,0,0,1,129.59,80Z"/><path class="cls-4" d="M126.29,82.06q.12-36.35.22-72.71a2.85,2.85,0,0,1,2.83.36,1.93,1.93,0,0,1,.65,1.62V80a2.19,2.19,0,0,1-1.09,1.87A3,3,0,0,1,126.29,82.06Z"/><path class="cls-3" d="M13.64,11.45l-.1,68.72a2.42,2.42,0,0,1-.86-.34A1.72,1.72,0,0,1,12,78.69V12.48a1.08,1.08,0,0,1,.5-.86A1.56,1.56,0,0,1,13.64,11.45Z"/><path class="cls-5" d="M16.94,9.35q-.11,36.36-.22,72.72a2.83,2.83,0,0,1-2.82-.36,1.87,1.87,0,0,1-.65-1.62V11.4a2.17,2.17,0,0,1,1.08-1.87A3,3,0,0,1,16.94,9.35Z"/><rect class="cls-6" x="37.19" y="-9.09" width="68.77" height="109.45" rx="2.85" transform="translate(117.21 -25.93) rotate(90)"/><path class="cls-7" d="M47,41.77A13.47,13.47,0,0,0,47,40a1.94,1.94,0,0,0-.42-1,1.65,1.65,0,0,0-.94-.51A7.93,7.93,0,0,0,44,38.35l-1.54,0c-.44,0-.87,0-1.28-.11A9.48,9.48,0,0,1,39.88,38a13,13,0,0,1-1.47-.45c.19-.61.37-1.22.56-1.82s.39-1.19.61-1.77c.58.16,1.08.29,1.49.38s.82.16,1.2.21a11.19,11.19,0,0,0,1.2.1h2.4a9.35,9.35,0,0,1,2.11.24,4.62,4.62,0,0,1,1.89.91,4.69,4.69,0,0,1,1.33,1.79,7.44,7.44,0,0,1,.51,3v8.14h3.15v3.71H37.13V48.71H47Z"/><path class="cls-7" d="M65.43,34.64V52.42H60.77V38.35h-3V34.64Z"/><path class="cls-7" d="M75.64,38.35l-1.54,0a12.71,12.71,0,0,1-1.28-.11A9.94,9.94,0,0,1,71.56,38a12.87,12.87,0,0,1-1.46-.45c.18-.61.37-1.22.55-1.82s.39-1.19.61-1.77c.58.16,1.08.29,1.5.38s.81.16,1.19.21a11.39,11.39,0,0,0,1.21.1h5.19a9.38,9.38,0,0,1,2.12.24,4.58,4.58,0,0,1,1.88.91,4.71,4.71,0,0,1,1.34,1.79,7.44,7.44,0,0,1,.51,3V52.42H81.53V41.77A13.47,13.47,0,0,0,81.44,40,2,2,0,0,0,81,39a1.69,1.69,0,0,0-.94-.51,7.93,7.93,0,0,0-1.64-.14Zm-5.37,8.87c0-.49,0-.93,0-1.34s0-.79.06-1.17.07-.75.12-1.11.14-.76.24-1.18c.77.08,1.53.18,2.29.3a22.68,22.68,0,0,1,2.29.47A15.87,15.87,0,0,0,75,45.11c-.05.64-.07,1.39-.07,2.23v5.08H70.27Z"/><path class="cls-7" d="M106.64,35.34l-.12,2.21-.92,3.37c-.15.53-.31,1-.47,1.46a8.22,8.22,0,0,1-.58,1.28,6.43,6.43,0,0,1-.84,1.16,9.57,9.57,0,0,1-1.21,1.12l2.82,3.23c0,.49-.13,1-.22,1.62s-.18,1.14-.27,1.63H90.3V48.71h9.31c-1.08-1.26-2.16-2.5-3.24-3.74s-2.16-2.48-3.23-3.73c-.47-.55-.87-1-1.2-1.48a14.45,14.45,0,0,1-.89-1.31,12.82,12.82,0,0,1-.73-1.38c-.23-.49-.47-1-.72-1.69.63-.26,1.29-.52,2-.78s1.38-.49,2-.69c.25.64.49,1.2.71,1.69s.48,1,.74,1.4A13.4,13.4,0,0,0,96,38.33c.34.44.74.93,1.21,1.47l3,3.44a3.15,3.15,0,0,0,.47-.58A4.46,4.46,0,0,0,101,42a7.66,7.66,0,0,0,.29-.85c.1-.31.19-.65.29-1l.55-2.07-2.49-.53.82-3.52Z"/></svg>